<?xml version="1.0" encoding="UTF-8"?>
<!DOCTYPE svg PUBLIC "-//W3C//DTD SVG 1.1//EN" "http://www.w3.org/Graphics/SVG/1.1/DTD/svg11.dtd">
<svg xmlns="http://www.w3.org/2000/svg" version="1.1" width="500px" height="500px" style="shape-rendering:geometricPrecision; text-rendering:geometricPrecision; image-rendering:optimizeQuality; fill-rule:evenodd; clip-rule:evenodd" xmlns:xlink="http://www.w3.org/1999/xlink">
    <g><path style="opacity:1" fill="#020f1f" d="M -0.5,-0.5 C 166.167,-0.5 332.833,-0.5 499.5,-0.5C 499.5,166.167 499.5,332.833 499.5,499.5C 332.833,499.5 166.167,499.5 -0.5,499.5C -0.5,332.833 -0.5,166.167 -0.5,-0.5 Z"/></g>
    <g><path style="opacity:1" fill="#00f1f2" d="M 237.5,72.5 C 300.097,71.5211 342.263,100.188 364,158.5C 375.576,207.384 363.076,248.884 326.5,283C 294.23,308.81 257.896,316.81 217.5,307C 167.637,290.125 138.804,255.625 131,203.5C 128.227,152.207 148.727,113.374 192.5,87C 206.747,79.4163 221.747,74.583 237.5,72.5 Z"/></g>
    <g><path style="opacity:1" fill="#031221" d="M 232.5,79.5 C 280.296,75.2366 317.796,92.5699 345,131.5C 369.064,173.751 368.064,215.417 342,256.5C 309.612,297.853 267.778,312.353 216.5,300C 174.388,285.223 148.555,256.056 139,212.5C 131.777,162.131 149.277,122.964 191.5,95C 204.404,87.5371 218.07,82.3704 232.5,79.5 Z"/></g>
    <g><path style="opacity:1" fill="#00cfd3" d="M 234.5,85.5 C 238.588,85.2184 239.088,85.8851 236,87.5C 234.97,87.1639 234.47,86.4972 234.5,85.5 Z"/></g>
    <g><path style="opacity:1" fill="#00d4d7" d="M 244.5,84.5 C 245.675,84.281 246.675,84.6143 247.5,85.5C 245.948,86.7979 244.948,86.4646 244.5,84.5 Z"/></g>
    <g><path style="opacity:1" fill="#00e1e3" d="M 225.5,86.5 C 226.675,86.281 227.675,86.6143 228.5,87.5C 226.948,88.7979 225.948,88.4646 225.5,86.5 Z"/></g>
    <g><path style="opacity:1" fill="#01d0d3" d="M 217.5,88.5 C 220.012,89.2162 220.012,90.2162 217.5,91.5C 216.438,90.5754 216.438,89.5754 217.5,88.5 Z"/></g>
    <g><path style="opacity:1" fill="#00eced" d="M 253.5,90.5 C 306.823,96.6567 338.989,125.99 350,178.5C 353.245,226.528 333.745,261.695 291.5,284C 247.575,301.514 208.908,293.681 175.5,260.5C 176.348,258.717 177.681,258.217 179.5,259C 210.764,288.882 246.764,296.215 287.5,281C 329.562,260.398 349.062,226.565 346,179.5C 339.034,139.198 316.201,112.365 277.5,99C 269.588,97.0112 261.588,95.5112 253.5,94.5C 253.5,93.1667 253.5,91.8333 253.5,90.5 Z"/></g>
    <g><path style="opacity:1" fill="#00d3d6" d="M 207.5,92.5 C 208.675,92.281 209.675,92.6143 210.5,93.5C 208.948,94.7979 207.948,94.4646 207.5,92.5 Z"/></g>
    <g><path style="opacity:1" fill="#01bdc2" d="M 200.5,95.5 C 203.028,96.5179 202.861,97.5179 200,98.5C 199.5,98.1667 199,97.8333 198.5,97.5C 199.243,96.8182 199.909,96.1515 200.5,95.5 Z"/></g>
    <g><path style="opacity:1" fill="#01b2b7" d="M 191.5,100.5 C 195.339,101.05 195.339,102.05 191.5,103.5C 190.438,102.575 190.438,101.575 191.5,100.5 Z"/></g>
    <g><path style="opacity:1" fill="#00eced" d="M 234.5,100.5 C 238.167,100.5 241.833,100.5 245.5,100.5C 245.5,101.5 245.5,102.5 245.5,103.5C 236.403,104.704 227.403,106.371 218.5,108.5C 218.5,107.167 218.5,105.833 218.5,104.5C 223.943,103.139 229.276,101.806 234.5,100.5 Z"/></g>
    <g><path style="opacity:1" fill="#00e4e6" d="M 306.5,101.5 C 308.686,101.511 309.519,102.511 309,104.5C 307.583,103.922 306.75,102.922 306.5,101.5 Z"/></g>
    <g><path style="opacity:1" fill="#00d7da" d="M 184.5,105.5 C 187.012,106.216 187.012,107.216 184.5,108.5C 183.438,107.575 183.438,106.575 184.5,105.5 Z"/></g>
    <g><path style="opacity:1" fill="#00eaec" d="M 341.5,106.5 C 343.716,107.203 345.549,108.536 347,110.5C 372.542,143.029 381.208,179.696 373,220.5C 357.122,276.697 320.288,309.197 262.5,318C 210.195,321.097 169.695,300.93 141,257.5C 128.021,235.963 122.188,212.629 123.5,187.5C 124.5,187.5 125.5,187.5 126.5,187.5C 127.3,241.977 151.966,281.144 200.5,305C 243.069,321.299 283.403,316.966 321.5,292C 364.43,257.215 379.93,212.715 368,158.5C 362.883,139.925 353.883,123.592 341,109.5C 340.53,108.423 340.697,107.423 341.5,106.5 Z"/></g>
    <g><path style="opacity:1" fill="#00fffe" d="M 314.5,108.5 C 315.497,107.287 316.497,107.454 317.5,109C 316.423,109.47 315.423,109.303 314.5,108.5 Z"/></g>
    <g><path style="opacity:1" fill="#00eced" d="M 238.5,109.5 C 277.785,106.888 306.618,122.888 325,157.5C 339.134,194.166 332.301,226.333 304.5,254C 287.804,268.067 268.471,274.9 246.5,274.5C 246.5,273.167 246.5,271.833 246.5,270.5C 287.687,269.131 314.187,248.797 326,209.5C 332.34,169.014 317.507,139.18 281.5,120C 240.254,105.437 207.087,115.937 182,151.5C 165.361,184.879 168.528,216.212 191.5,245.5C 190.537,247.49 189.204,247.823 187.5,246.5C 167.338,222.19 161.838,194.857 171,164.5C 183.538,133.682 206.038,115.349 238.5,109.5 Z"/></g>
    <g><path style="opacity:1" fill="#00cccf" d="M 177.5,111.5 C 179.892,112.742 179.725,114.075 177,115.5C 175.413,114.154 175.58,112.821 177.5,111.5 Z"/></g>
    <g><path style="opacity:1" fill="#00dbde" d="M 321.5,114.5 C 322.743,113.263 323.743,113.596 324.5,115.5C 324.167,115.833 323.833,116.167 323.5,116.5C 322.818,115.757 322.151,115.091 321.5,114.5 Z"/></g>
    <g><path style="opacity:1" fill="#00ebed" d="M 197.5,115.5 C 200.275,115.834 200.941,117.167 199.5,119.5C 193.384,124.113 187.718,129.28 182.5,135C 181.207,135.49 179.873,135.657 178.5,135.5C 178.351,134.448 178.517,133.448 179,132.5C 184.763,126.231 190.929,120.564 197.5,115.5 Z"/></g>
    <g><path style="opacity:1" fill="#00f5f6" d="M 244.5,118.5 C 250.176,118.334 255.843,118.501 261.5,119C 264.447,119.112 265.78,120.612 265.5,123.5C 258.515,122.911 251.515,122.578 244.5,122.5C 244.5,121.167 244.5,119.833 244.5,118.5 Z"/></g>
    <g><path style="opacity:1" fill="#00dee0" d="M 170.5,118.5 C 173.012,119.216 173.012,120.216 170.5,121.5C 169.438,120.575 169.438,119.575 170.5,118.5 Z"/></g>
    <g><path style="opacity:1" fill="#00dbdd" d="M 328.5,119.5 C 330.332,120.14 330.665,121.14 329.5,122.5C 328.614,121.675 328.281,120.675 328.5,119.5 Z"/></g>
    <g><path style="opacity:1" fill="#00eced" d="M 224.5,121.5 C 226.527,121.338 228.527,121.505 230.5,122C 231.833,123 231.833,124 230.5,125C 224.135,127.52 217.802,130.02 211.5,132.5C 211.286,130.856 211.62,129.356 212.5,128C 216.722,126.059 220.722,123.892 224.5,121.5 Z"/></g>
    <g><path style="opacity:1" fill="#00e8ea" d="M 278.5,124.5 C 284.715,126.609 290.381,129.776 295.5,134C 296.38,135.356 296.714,136.856 296.5,138.5C 294.692,138.509 293.025,138.009 291.5,137C 287.669,133.581 283.335,130.914 278.5,129C 277.272,127.51 277.272,126.01 278.5,124.5 Z"/></g>
    <g><path style="opacity:1" fill="#01c9cd" d="M 164.5,125.5 C 167.012,126.216 167.012,127.216 164.5,128.5C 163.438,127.575 163.438,126.575 164.5,125.5 Z"/></g>
    <g><path style="opacity:1" fill="#00f0f1" d="M 334.5,127.5 C 336.225,127.843 336.725,128.843 336,130.5C 334.961,129.756 334.461,128.756 334.5,127.5 Z"/></g>
    <g><path style="opacity:1" fill="#01d2d5" d="M 158.5,133.5 C 160.465,133.948 160.798,134.948 159.5,136.5C 158.614,135.675 158.281,134.675 158.5,133.5 Z"/></g>
    <g><path style="opacity:1" fill="#00e3e5" d="M 339.5,135.5 C 341.225,135.843 341.725,136.843 341,138.5C 339.961,137.756 339.461,136.756 339.5,135.5 Z"/></g>
    <g><path style="opacity:1" fill="#00eeef" d="M 198.5,138.5 C 201.076,138.722 201.91,140.055 201,142.5C 196.574,146.535 192.74,151.035 189.5,156C 188.552,156.483 187.552,156.649 186.5,156.5C 186.372,154.345 186.872,152.345 188,150.5C 191.336,146.332 194.836,142.332 198.5,138.5 Z"/></g>
    <g><path style="opacity:1" fill="#e3e5e7" d="M 229.5,154.5 C 235.979,155.491 242.646,155.824 249.5,155.5C 249.5,150.833 249.5,146.167 249.5,141.5C 251.43,145.373 252.097,149.706 251.5,154.5C 257.833,154.5 264.167,154.5 270.5,154.5C 270.5,150.167 270.5,145.833 270.5,141.5C 271.5,141.5 272.5,141.5 273.5,141.5C 273.5,145.833 273.5,150.167 273.5,154.5C 288.5,151.5 294.5,157.5 291.5,172.5C 295.096,172.847 298.429,172.18 301.5,170.5C 303.5,170.5 304.5,171.5 304.5,173.5C 304.225,175.609 303.058,176.942 301,177.5C 298.114,175.775 294.948,175.108 291.5,175.5C 291.5,181.833 291.5,188.167 291.5,194.5C 295.833,194.5 300.167,194.5 304.5,194.5C 304.5,195.5 304.5,196.5 304.5,197.5C 300.167,197.5 295.833,197.5 291.5,197.5C 291.5,203.5 291.5,209.5 291.5,215.5C 295.833,215.5 300.167,215.5 304.5,215.5C 304.5,216.5 304.5,217.5 304.5,218.5C 300.167,218.5 295.833,218.5 291.5,218.5C 294.5,233.5 288.5,239.5 273.5,236.5C 273.5,240.833 273.5,245.167 273.5,249.5C 272.5,249.5 271.5,249.5 270.5,249.5C 270.5,245.167 270.5,240.833 270.5,236.5C 264.167,236.5 257.833,236.5 251.5,236.5C 251.5,240.833 251.5,245.167 251.5,249.5C 250.5,249.5 249.5,249.5 248.5,249.5C 248.5,245.167 248.5,240.833 248.5,236.5C 242.167,236.5 235.833,236.5 229.5,236.5C 229.153,240.096 229.82,243.429 231.5,246.5C 230.904,249.246 229.237,250.08 226.5,249C 225.941,248.275 225.608,247.442 225.5,246.5C 226.327,243.217 226.66,239.884 226.5,236.5C 222.154,236.666 217.821,236.499 213.5,236C 210.778,234.728 209.444,232.561 209.5,229.5C 209.5,225.833 209.5,222.167 209.5,218.5C 206.941,218.198 204.607,218.532 202.5,219.5C 200.621,220.341 198.621,220.675 196.5,220.5C 196.5,218.5 196.5,216.5 196.5,214.5C 198.621,214.325 200.621,214.659 202.5,215.5C 204.607,216.468 206.941,216.802 209.5,216.5C 209.5,209.833 209.5,203.167 209.5,196.5C 205.167,196.5 200.833,196.5 196.5,196.5C 195.167,195.833 195.167,195.167 196.5,194.5C 200.833,194.5 205.167,194.5 209.5,194.5C 209.823,187.978 209.49,181.645 208.5,175.5C 204.5,175.5 200.5,175.5 196.5,175.5C 196.5,174.5 196.5,173.5 196.5,172.5C 200.833,172.5 205.167,172.5 209.5,172.5C 206.328,158.007 211.995,152.007 226.5,154.5C 226.66,151.116 226.327,147.783 225.5,144.5C 226.096,141.754 227.763,140.92 230.5,142C 231.059,142.725 231.392,143.558 231.5,144.5C 229.82,147.571 229.153,150.904 229.5,154.5 Z"/></g>
    <g><path style="opacity:1" fill="#00dddf" d="M 154.5,141.5 C 157.012,142.216 157.012,143.216 154.5,144.5C 153.438,143.575 153.438,142.575 154.5,141.5 Z"/></g>
    <g><path style="opacity:1" fill="#01cdd0" d="M 343.5,143.5 C 344.995,143.415 345.995,144.081 346.5,145.5C 344.604,146.639 343.604,145.973 343.5,143.5 Z"/></g>
    <g><path style="opacity:1" fill="#00edee" d="M 305.5,146.5 C 307.716,147.203 309.549,148.536 311,150.5C 313.625,154.788 315.791,159.288 317.5,164C 316.407,167.12 314.907,167.287 313,164.5C 311.166,159.338 308.499,154.672 305,150.5C 304.421,149.072 304.588,147.738 305.5,146.5 Z"/></g>
    <g><path style="opacity:1" fill="#00dddf" d="M 150.5,150.5 C 152.656,150.872 152.656,151.872 150.5,153.5C 149.438,152.575 149.438,151.575 150.5,150.5 Z"/></g>
    <g><path style="opacity:1" fill="#00ebec" d="M 166.5,152.5 C 167.5,152.5 168.5,152.5 169.5,152.5C 166.986,161.556 164.32,170.556 161.5,179.5C 160.914,179.291 160.414,178.957 160,178.5C 159.965,169.307 162.132,160.641 166.5,152.5 Z"/></g>
    <g><path style="opacity:1" fill="#01c1c5" d="M 347.5,151.5 C 349.832,152.162 350.499,153.495 349.5,155.5C 348.295,154.423 347.628,153.09 347.5,151.5 Z"/></g>
    <g><path style="opacity:1" fill="#aeb2b7" d="M 249.5,141.5 C 249.5,146.167 249.5,150.833 249.5,155.5C 242.646,155.824 235.979,155.491 229.5,154.5C 235.833,154.5 242.167,154.5 248.5,154.5C 248.182,149.968 248.515,145.634 249.5,141.5 Z"/></g>
    <g><path style="opacity:1" fill="#031020" d="M 214.5,157.5 C 238.502,157.333 262.502,157.5 286.5,158C 287,158.5 287.5,159 288,159.5C 288.667,183.5 288.667,207.5 288,231.5C 287.5,232 287,232.5 286.5,233C 262.124,233.823 237.791,233.657 213.5,232.5C 212.334,208.174 212.167,183.84 213,159.5C 213.717,158.956 214.217,158.289 214.5,157.5 Z"/></g>
    <g><path style="opacity:1" fill="#00d0d3" d="M 147.5,158.5 C 148.782,159.708 148.782,161.042 147.5,162.5C 146.374,161.192 146.374,159.858 147.5,158.5 Z"/></g>
    <g><path style="opacity:1" fill="#01a6ac" d="M 350.5,160.5 C 353.275,160.834 353.941,162.167 352.5,164.5C 350.889,163.68 350.222,162.346 350.5,160.5 Z"/></g>
    <g><path style="opacity:1" fill="#00edee" d="M 180.5,165.5 C 181.833,165.5 183.167,165.5 184.5,165.5C 183.109,172.176 181.609,178.843 180,185.5C 177.106,186.615 175.939,185.448 176.5,182C 177.394,176.354 178.728,170.854 180.5,165.5 Z"/></g>
    <g><path style="opacity:1" fill="#e3e4e6" d="M 242.5,165.5 C 245.39,165.278 248.057,165.945 250.5,167.5C 256.061,163.987 260.061,165.32 262.5,171.5C 270.968,172.302 275.301,176.968 275.5,185.5C 280.319,188.943 280.653,192.777 276.5,197C 282.247,203.692 281.414,209.525 274,214.5C 273.444,221.904 269.61,224.904 262.5,223.5C 258.16,226.439 254.16,226.106 250.5,222.5C 248.525,224.321 246.191,225.321 243.5,225.5C 239.24,223.999 234.907,223.166 230.5,223C 227.652,220.471 225.985,217.304 225.5,213.5C 219.669,208.517 219.002,202.85 223.5,196.5C 222.104,195.148 221.437,193.481 221.5,191.5C 224.399,186.582 226.566,181.249 228,175.5C 230.984,172.9 234.484,171.9 238.5,172.5C 238.571,169.348 239.905,167.014 242.5,165.5 Z"/></g>
    <g><path style="opacity:1" fill="#00e5e7" d="M 144.5,168.5 C 146.465,168.948 146.798,169.948 145.5,171.5C 144.614,170.675 144.281,169.675 144.5,168.5 Z"/></g>
    <g><path style="opacity:1" fill="#081422" d="M 242.5,168.5 C 244.262,168.357 245.929,168.691 247.5,169.5C 248.666,182.487 248.833,195.487 248,208.5C 241.75,206.571 238.25,208.905 237.5,215.5C 238.5,215.5 239.5,215.5 240.5,215.5C 241.339,210.332 243.839,209.332 248,212.5C 249.004,215.993 248.504,219.159 246.5,222C 241.904,221.098 237.237,220.764 232.5,221C 230.032,218.772 228.865,215.938 229,212.5C 223.934,210.419 222.267,206.752 224,201.5C 225.158,199.509 226.658,197.842 228.5,196.5C 225.275,195.187 224.109,192.853 225,189.5C 226.11,187.963 227.61,187.297 229.5,187.5C 228.11,184.07 228.276,180.736 230,177.5C 231.574,176.152 233.407,175.486 235.5,175.5C 237.909,176.37 240.242,176.37 242.5,175.5C 241.178,173.135 241.178,170.802 242.5,168.5 Z"/></g>
    <g><path style="opacity:1" fill="#091523" d="M 253.5,168.5 C 259.197,168.566 260.863,171.232 258.5,176.5C 268.388,173.381 273.055,177.048 272.5,187.5C 274.786,187.96 276.119,189.293 276.5,191.5C 275.755,193.747 274.422,195.581 272.5,197C 279.55,203.048 279.05,208.215 271,212.5C 271.601,219.577 268.601,222.244 262,220.5C 258.816,223.106 255.649,223.106 252.5,220.5C 251.359,210.547 251.192,200.547 252,190.5C 259.197,193.11 262.364,190.777 261.5,183.5C 259.584,188.712 256.417,189.712 252,186.5C 251.333,181.167 251.333,175.833 252,170.5C 252.717,169.956 253.217,169.289 253.5,168.5 Z"/></g>
    <g><path style="opacity:1" fill="#01d0d3" d="M 353.5,169.5 C 355.476,170.427 355.809,171.76 354.5,173.5C 353.571,172.311 353.238,170.978 353.5,169.5 Z"/></g>
    <g><path style="opacity:1" fill="#424c58" d="M 208.5,175.5 C 209.49,181.645 209.823,187.978 209.5,194.5C 205.167,194.5 200.833,194.5 196.5,194.5C 200.298,193.517 204.298,193.183 208.5,193.5C 208.5,187.5 208.5,181.5 208.5,175.5 Z"/></g>
    <g><path style="opacity:1" fill="#02949c" d="M 142.5,177.5 C 143.5,177.5 144.5,177.5 145.5,177.5C 145.5,178.5 145.5,179.5 145.5,180.5C 144.5,180.5 143.5,180.5 142.5,180.5C 142.5,179.5 142.5,178.5 142.5,177.5 Z"/></g>
    <g><path style="opacity:1" fill="#00e7e8" d="M 318.5,178.5 C 319.822,178.33 320.989,178.663 322,179.5C 323.441,186.11 323.774,192.776 323,199.5C 321.667,200.833 320.333,200.833 319,199.5C 318.5,192.508 318.334,185.508 318.5,178.5 Z"/></g>
    <g><path style="opacity:1" fill="#00eff0" d="M 354.5,179.5 C 356.465,179.948 356.798,180.948 355.5,182.5C 354.614,181.675 354.281,180.675 354.5,179.5 Z"/></g>
    <g><path style="opacity:1" fill="#e6e8e9" d="M 238.5,181.5 C 239.75,181.577 240.583,182.244 241,183.5C 241.711,185.899 241.544,188.232 240.5,190.5C 242.447,192.276 242.78,194.276 241.5,196.5C 239.434,193.271 236.434,191.604 232.5,191.5C 231.614,190.675 231.281,189.675 231.5,188.5C 233.512,189.014 235.512,189.18 237.5,189C 238.23,186.399 238.563,183.899 238.5,181.5 Z"/></g>
    <g><path style="opacity:1" fill="#01ced1" d="M 142.5,186.5 C 143.586,186.62 144.253,187.287 144.5,188.5C 144.167,189.167 143.833,189.833 143.5,190.5C 142.571,189.311 142.238,187.978 142.5,186.5 Z"/></g>
    <g><path style="opacity:1" fill="#01b6bb" d="M 354.5,188.5 C 355.5,188.5 356.5,188.5 357.5,188.5C 356.5,193.833 355.5,193.833 354.5,188.5 Z"/></g>
    <g><path style="opacity:1" fill="#00d2d5" d="M 142.5,196.5 C 144.465,196.948 144.798,197.948 143.5,199.5C 142.614,198.675 142.281,197.675 142.5,196.5 Z"/></g>
    <g><path style="opacity:1" fill="#5b646e" d="M 196.5,196.5 C 200.833,196.5 205.167,196.5 209.5,196.5C 209.5,203.167 209.5,209.833 209.5,216.5C 206.941,216.802 204.607,216.468 202.5,215.5C 204.5,215.5 206.5,215.5 208.5,215.5C 208.5,209.5 208.5,203.5 208.5,197.5C 204.298,197.817 200.298,197.483 196.5,196.5 Z"/></g>
    <g><path style="opacity:1" fill="#00d1d4" d="M 354.5,198.5 C 356.465,198.948 356.798,199.948 355.5,201.5C 354.614,200.675 354.281,199.675 354.5,198.5 Z"/></g>
    <g><path style="opacity:1" fill="#e2e3e5" d="M 257.5,201.5 C 261.165,202.652 264.831,202.819 268.5,202C 269.91,202.368 270.91,203.201 271.5,204.5C 269.599,205.231 267.599,205.231 265.5,204.5C 266.172,207.908 265.172,210.575 262.5,212.5C 262.113,210.269 261.947,207.936 262,205.5C 260.204,204.233 258.371,204.233 256.5,205.5C 256.167,205 255.833,204.5 255.5,204C 256.056,202.989 256.722,202.156 257.5,201.5 Z"/></g>
    <g><path style="opacity:1" fill="#01c4c8" d="M 143.5,205.5 C 144.586,205.62 145.253,206.287 145.5,207.5C 145.167,208.167 144.833,208.833 144.5,209.5C 143.571,208.311 143.238,206.978 143.5,205.5 Z"/></g>
    <g><path style="opacity:1" fill="#00e8ea" d="M 353.5,207.5 C 355.465,207.948 355.798,208.948 354.5,210.5C 353.614,209.675 353.281,208.675 353.5,207.5 Z"/></g>
    <g><path style="opacity:1" fill="#00eaec" d="M 315.5,213.5 C 316.833,213.5 318.167,213.5 319.5,213.5C 317.856,219.796 315.356,225.796 312,231.5C 310.093,234.287 308.593,234.12 307.5,231C 310.318,225.2 312.985,219.367 315.5,213.5 Z"/></g>
    <g><path style="opacity:1" fill="#01ced2" d="M 145.5,214.5 C 147.476,215.427 147.809,216.76 146.5,218.5C 145.571,217.311 145.238,215.978 145.5,214.5 Z"/></g>
    <g><path style="opacity:1" fill="#00d0d3" d="M 352.5,216.5 C 353.782,217.708 353.782,219.042 352.5,220.5C 351.374,219.192 351.374,217.858 352.5,216.5 Z"/></g>
    <g><path style="opacity:1" fill="#424c58" d="M 202.5,219.5 C 204.607,218.532 206.941,218.198 209.5,218.5C 209.5,222.167 209.5,225.833 209.5,229.5C 208.521,226.375 208.187,223.042 208.5,219.5C 206.5,219.5 204.5,219.5 202.5,219.5 Z"/></g>
    <g><path style="opacity:1" fill="#00f2f3" d="M 147.5,224.5 C 149.225,224.843 149.725,225.843 149,227.5C 147.961,226.756 147.461,225.756 147.5,224.5 Z"/></g>
    <g><path style="opacity:1" fill="#01a5ac" d="M 349.5,225.5 C 352.041,226.623 352.041,227.956 349.5,229.5C 348.374,228.192 348.374,226.858 349.5,225.5 Z"/></g>
    <g><path style="opacity:1" fill="#00ebec" d="M 169.5,232.5 C 170.675,232.281 171.675,232.614 172.5,233.5C 176.27,240.037 180.77,246.037 186,251.5C 186.49,252.793 186.657,254.127 186.5,255.5C 185.448,255.649 184.448,255.483 183.5,255C 177.156,249.143 172.156,242.309 168.5,234.5C 168.863,233.817 169.196,233.15 169.5,232.5 Z"/></g>
    <g><path style="opacity:1" fill="#00cdd0" d="M 345.5,234.5 C 347.97,235.36 348.137,236.694 346,238.5C 345.51,237.207 345.343,235.873 345.5,234.5 Z"/></g>
    <g><path style="opacity:1" fill="#01b1b6" d="M 150.5,232.5 C 152.832,233.162 153.499,234.495 152.5,236.5C 150.889,235.68 150.222,234.346 150.5,232.5 Z"/></g>
    <g><path style="opacity:1" fill="#00eff0" d="M 155.5,241.5 C 157.332,242.14 157.665,243.14 156.5,244.5C 155.614,243.675 155.281,242.675 155.5,241.5 Z"/></g>
    <g><path style="opacity:1" fill="#01bdc2" d="M 341.5,242.5 C 344.041,243.623 344.041,244.956 341.5,246.5C 340.708,245.3 340.708,243.967 341.5,242.5 Z"/></g>
    <g><path style="opacity:1" fill="#00dfe1" d="M 159.5,249.5 C 160.995,249.415 161.995,250.081 162.5,251.5C 160.604,252.639 159.604,251.973 159.5,249.5 Z"/></g>
    <g><path style="opacity:1" fill="#01b7bc" d="M 336.5,250.5 C 339.041,251.623 339.041,252.956 336.5,254.5C 335.708,253.3 335.708,251.967 336.5,250.5 Z"/></g>
    <g><path style="opacity:1" fill="#00f0f1" d="M 312.5,252.5 C 314.103,252.312 315.437,252.812 316.5,254C 311.478,259.686 305.811,264.686 299.5,269C 297.655,270.128 295.655,270.628 293.5,270.5C 293.33,269.178 293.663,268.011 294.5,267C 301.267,263.061 307.267,258.228 312.5,252.5 Z"/></g>
    <g><path style="opacity:1" fill="#00fffe" d="M 331.5,258.5 C 332.713,259.497 332.546,260.497 331,261.5C 330.53,260.423 330.697,259.423 331.5,258.5 Z"/></g>
    <g><path style="opacity:1" fill="#00cdd1" d="M 165.5,257.5 C 166.995,257.415 167.995,258.081 168.5,259.5C 166.604,260.639 165.604,259.973 165.5,257.5 Z"/></g>
    <g><path style="opacity:1" fill="#00d2d5" d="M 171.5,264.5 C 172.995,264.415 173.995,265.081 174.5,266.5C 172.604,267.639 171.604,266.973 171.5,264.5 Z"/></g>
    <g><path style="opacity:1" fill="#00e6e7" d="M 324.5,265.5 C 327.012,266.216 327.012,267.216 324.5,268.5C 323.438,267.575 323.438,266.575 324.5,265.5 Z"/></g>
    <g><path style="opacity:1" fill="#00ebec" d="M 202.5,266.5 C 210.259,270.379 218.259,273.712 226.5,276.5C 227.823,278.204 227.49,279.537 225.5,280.5C 217.037,278.073 209.204,274.407 202,269.5C 201.53,268.423 201.697,267.423 202.5,266.5 Z"/></g>
    <g><path style="opacity:1" fill="#00dee0" d="M 178.5,270.5 C 179.643,270.908 180.643,271.575 181.5,272.5C 179.604,273.639 178.604,272.973 178.5,270.5 Z"/></g>
    <g><path style="opacity:1" fill="#00eaec" d="M 318.5,271.5 C 319.688,273.496 319.021,274.329 316.5,274C 317.381,273.292 318.047,272.458 318.5,271.5 Z"/></g>
    <g><path style="opacity:1" fill="#00eff0" d="M 269.5,276.5 C 271.467,276.261 273.301,276.594 275,277.5C 275.448,279.409 274.615,280.576 272.5,281C 264.537,282.425 256.537,283.091 248.5,283C 247.167,282 247.167,281 248.5,280C 255.81,279.876 262.81,278.709 269.5,276.5 Z"/></g>
    <g><path style="opacity:1" fill="#00d4d7" d="M 185.5,276.5 C 186.995,276.415 187.995,277.081 188.5,278.5C 186.604,279.639 185.604,278.973 185.5,276.5 Z"/></g>
    <g><path style="opacity:1" fill="#00d1d4" d="M 310.5,277.5 C 313.012,278.216 313.012,279.216 310.5,280.5C 309.438,279.575 309.438,278.575 310.5,277.5 Z"/></g>
    <g><path style="opacity:1" fill="#00eaeb" d="M 193.5,283.5 C 194.386,282.224 195.386,282.224 196.5,283.5C 195.575,284.562 194.575,284.562 193.5,283.5 Z"/></g>
    <g><path style="opacity:1" fill="#01cfd2" d="M 302.5,282.5 C 305.012,283.216 305.012,284.216 302.5,285.5C 301.438,284.575 301.438,283.575 302.5,282.5 Z"/></g>
    <g><path style="opacity:1" fill="#00e0e2" d="M 201.5,286.5 C 203.686,286.511 204.519,287.511 204,289.5C 202.583,288.922 201.75,287.922 201.5,286.5 Z"/></g>
    <g><path style="opacity:1" fill="#00dadc" d="M 293.5,287.5 C 297.276,287.469 297.443,288.136 294,289.5C 292.316,289.317 292.15,288.65 293.5,287.5 Z"/></g>
    <g><path style="opacity:1" fill="#00d8da" d="M 210.5,290.5 C 211.675,290.281 212.675,290.614 213.5,291.5C 211.948,292.798 210.948,292.465 210.5,290.5 Z"/></g>
    <g><path style="opacity:1" fill="#00d4d7" d="M 285.5,290.5 C 287.934,291.354 287.767,292.354 285,293.5C 284.53,292.423 284.697,291.423 285.5,290.5 Z"/></g>
    <g><path style="opacity:1" fill="#00e5e6" d="M 219.5,293.5 C 220.675,293.281 221.675,293.614 222.5,294.5C 220.948,295.798 219.948,295.465 219.5,293.5 Z"/></g>
    <g><path style="opacity:1" fill="#01bbbf" d="M 275.5,293.5 C 277.355,293.272 278.188,293.939 278,295.5C 275.366,296.692 274.532,296.026 275.5,293.5 Z"/></g>
    <g><path style="opacity:1" fill="#00e3e5" d="M 228.5,295.5 C 229.675,295.281 230.675,295.614 231.5,296.5C 229.948,297.798 228.948,297.465 228.5,295.5 Z"/></g>
    <g><path style="opacity:1" fill="#01b2b8" d="M 266.5,295.5 C 268.355,295.272 269.188,295.939 269,297.5C 266.192,298.86 265.359,298.193 266.5,295.5 Z"/></g>
    <g><path style="opacity:1" fill="#00f0f1" d="M 247.5,297.5 C 248.675,297.281 249.675,297.614 250.5,298.5C 248.948,299.798 247.948,299.465 247.5,297.5 Z"/></g>
    <g><path style="opacity:1" fill="#03858d" d="M 237.5,296.5 C 239.346,296.222 240.68,296.889 241.5,298.5C 240.311,299.429 238.978,299.762 237.5,299.5C 237.5,298.5 237.5,297.5 237.5,296.5 Z"/></g>
    <g><path style="opacity:1" fill="#01b0b5" d="M 256.5,297.5 C 257.675,297.281 258.675,297.614 259.5,298.5C 257.948,299.798 256.948,299.465 256.5,297.5 Z"/></g>
    <g><path style="opacity:1" fill="#80868e" d="M 197.5,348.5 C 192.167,348.5 186.833,348.5 181.5,348.5C 181.5,349.5 181.5,350.5 181.5,351.5C 186.695,351.179 191.695,351.513 196.5,352.5C 191.5,352.5 186.5,352.5 181.5,352.5C 181.5,355.5 181.5,358.5 181.5,361.5C 180.523,358.713 180.19,355.713 180.5,352.5C 179.5,352.5 178.5,352.5 177.5,352.5C 177.5,359.5 177.5,366.5 177.5,373.5C 176.508,366.352 176.175,359.019 176.5,351.5C 177.833,351.5 179.167,351.5 180.5,351.5C 180.5,350.167 180.5,348.833 180.5,347.5C 186.358,347.178 192.025,347.511 197.5,348.5 Z"/></g>
    <g><path style="opacity:1" fill="#eeeff0" d="M 72.5,348.5 C 75.6136,349.091 78.1136,350.758 80,353.5C 81.8065,357.918 83.8065,362.251 86,366.5C 87.0391,367.71 88.2058,368.71 89.5,369.5C 89.5,370.833 89.5,372.167 89.5,373.5C 86.7374,373.256 84.5707,371.923 83,369.5C 80.6667,364.833 78.3333,360.167 76,355.5C 75.2411,353.937 74.0744,352.937 72.5,352.5C 72.5,351.167 72.5,349.833 72.5,348.5 Z"/></g>
    <g><path style="opacity:1" fill="#f8f8f8" d="M 89.5,348.5 C 90.8333,348.5 92.1667,348.5 93.5,348.5C 93.5,355.5 93.5,362.5 93.5,369.5C 92.1667,369.5 90.8333,369.5 89.5,369.5C 89.5,362.5 89.5,355.5 89.5,348.5 Z"/></g>
    <g><path style="opacity:1" fill="#3e4754" d="M 89.5,348.5 C 90.9187,347.549 92.5853,347.216 94.5,347.5C 94.825,355.019 94.4916,362.352 93.5,369.5C 93.5,362.5 93.5,355.5 93.5,348.5C 92.1667,348.5 90.8333,348.5 89.5,348.5 Z"/></g>
    <g><path style="opacity:1" fill="#fefffe" d="M 99.5,348.5 C 106.5,348.5 113.5,348.5 120.5,348.5C 120.5,349.5 120.5,350.5 120.5,351.5C 113.5,351.5 106.5,351.5 99.5,351.5C 99.5,350.5 99.5,349.5 99.5,348.5 Z"/></g>
    <g><path style="opacity:1" fill="#f6f6f7" d="M 122.5,348.5 C 123.833,348.5 125.167,348.5 126.5,348.5C 126.176,355.354 126.509,362.021 127.5,368.5C 132.64,369.488 137.974,369.821 143.5,369.5C 143.833,369.5 144.167,369.5 144.5,369.5C 144.5,370.833 144.5,372.167 144.5,373.5C 138.491,373.666 132.491,373.499 126.5,373C 125.333,371.833 124.167,370.667 123,369.5C 122.5,362.508 122.334,355.508 122.5,348.5 Z"/></g>
    <g><path style="opacity:1" fill="#4c5561" d="M 122.5,348.5 C 123.919,347.549 125.585,347.216 127.5,347.5C 127.5,354.5 127.5,361.5 127.5,368.5C 126.509,362.021 126.176,355.354 126.5,348.5C 125.167,348.5 123.833,348.5 122.5,348.5 Z"/></g>
    <g><path style="opacity:1" fill="#687079" d="M 148.5,348.5 C 147.167,348.5 145.833,348.5 144.5,348.5C 144.5,355.5 144.5,362.5 144.5,369.5C 144.167,369.5 143.833,369.5 143.5,369.5C 143.5,362.167 143.5,354.833 143.5,347.5C 145.415,347.216 147.081,347.549 148.5,348.5 Z"/></g>
    <g><path style="opacity:1" fill="#eff0f1" d="M 148.5,348.5 C 148.5,355.5 148.5,362.5 148.5,369.5C 147.167,369.5 145.833,369.5 144.5,369.5C 144.5,362.5 144.5,355.5 144.5,348.5C 145.833,348.5 147.167,348.5 148.5,348.5 Z"/></g>
    <g><path style="opacity:1" fill="#f6f7f7" d="M 170.5,348.5 C 172.371,348.859 173.871,349.859 175,351.5C 175.922,355.701 175.422,359.701 173.5,363.5C 175.301,366.535 175.968,369.869 175.5,373.5C 174.167,373.5 172.833,373.5 171.5,373.5C 171.768,370.881 171.435,368.381 170.5,366C 165.845,365.501 161.179,365.334 156.5,365.5C 156.5,364.167 156.5,362.833 156.5,361.5C 160.846,361.666 165.179,361.499 169.5,361C 172.145,358.05 172.145,355.217 169.5,352.5C 164.695,351.513 159.695,351.179 154.5,351.5C 154.5,350.5 154.5,349.5 154.5,348.5C 159.833,348.5 165.167,348.5 170.5,348.5 Z"/></g>
    <g><path style="opacity:1" fill="#f8f8f9" d="M 197.5,348.5 C 199.371,348.859 200.871,349.859 202,351.5C 202.5,358.826 202.666,366.159 202.5,373.5C 201.167,373.5 199.833,373.5 198.5,373.5C 198.666,366.825 198.5,360.158 198,353.5C 197.617,352.944 197.117,352.611 196.5,352.5C 191.695,351.513 186.695,351.179 181.5,351.5C 181.5,350.5 181.5,349.5 181.5,348.5C 186.833,348.5 192.167,348.5 197.5,348.5 Z"/></g>
    <g><path style="opacity:1" fill="#f9f9fa" d="M 204.5,347.5 C 205.833,347.5 207.167,347.5 208.5,347.5C 208.334,354.508 208.5,361.508 209,368.5C 215.076,369.476 221.242,369.81 227.5,369.5C 227.5,370.833 227.5,372.167 227.5,373.5C 221.158,373.666 214.825,373.5 208.5,373C 207.584,372.626 206.75,372.126 206,371.5C 204.565,363.611 204.065,355.611 204.5,347.5 Z"/></g>
    <g><path style="opacity:1" fill="#f8f8f8" d="M 263.5,348.5 C 266.858,349.527 268.525,351.86 268.5,355.5C 265.923,355.545 263.923,354.545 262.5,352.5C 257.695,351.513 252.695,351.179 247.5,351.5C 247.5,350.5 247.5,349.5 247.5,348.5C 252.833,348.5 258.167,348.5 263.5,348.5 Z"/></g>
    <g><path style="opacity:1" fill="#f5f5f6" d="M 290.5,348.5 C 292.371,348.859 293.871,349.859 295,351.5C 295.854,355.625 295.52,359.625 294,363.5C 293.25,364.126 292.416,364.626 291.5,365C 286.511,365.499 281.511,365.666 276.5,365.5C 276.5,364.167 276.5,362.833 276.5,361.5C 281.179,361.666 285.845,361.499 290.5,361C 291.786,358.168 291.786,355.335 290.5,352.5C 285.36,351.512 280.026,351.179 274.5,351.5C 274.5,350.5 274.5,349.5 274.5,348.5C 279.833,348.5 285.167,348.5 290.5,348.5 Z"/></g>
    <g><path style="opacity:1" fill="#fefffe" d="M 301.5,348.5 C 308.5,348.5 315.5,348.5 322.5,348.5C 322.5,349.5 322.5,350.5 322.5,351.5C 315.5,351.5 308.5,351.5 301.5,351.5C 301.5,350.5 301.5,349.5 301.5,348.5 Z"/></g>
    <g><path style="opacity:1" fill="#f6f7f7" d="M 329.5,348.5 C 334.833,348.5 340.167,348.5 345.5,348.5C 345.5,349.5 345.5,350.5 345.5,351.5C 340.305,351.179 335.305,351.513 330.5,352.5C 329.883,352.611 329.383,352.944 329,353.5C 328.501,358.823 328.334,364.156 328.5,369.5C 327.167,369.5 325.833,369.5 324.5,369.5C 324.334,363.824 324.501,358.157 325,352.5C 325.748,350.249 327.248,348.916 329.5,348.5 Z"/></g>
    <g><path style="opacity:1" fill="#eeeff0" d="M 362.5,348.5 C 363.71,348.932 364.71,349.599 365.5,350.5C 366.466,358.08 366.799,365.747 366.5,373.5C 365.167,373.5 363.833,373.5 362.5,373.5C 362.825,366.313 362.491,359.313 361.5,352.5C 358.713,351.523 355.713,351.19 352.5,351.5C 352.5,350.5 352.5,349.5 352.5,348.5C 355.833,348.5 359.167,348.5 362.5,348.5 Z"/></g>
    <g><path style="opacity:1" fill="#fefffe" d="M 377.5,348.5 C 377.5,349.5 377.5,350.5 377.5,351.5C 374.167,351.5 370.833,351.5 367.5,351.5C 367.5,350.5 367.5,349.5 367.5,348.5C 370.833,348.5 374.167,348.5 377.5,348.5 Z"/></g>
    <g><path style="opacity:1" fill="#e0e2e4" d="M 383.5,352.5 C 382.167,352.5 380.833,352.5 379.5,352.5C 380.568,351.566 381.901,351.232 383.5,351.5C 383.5,350.167 383.5,348.833 383.5,347.5C 389.176,347.334 394.843,347.501 400.5,348C 401.5,348.833 402.5,349.667 403.5,350.5C 404.803,354.653 404.803,358.82 403.5,363C 405.139,366.302 405.806,369.802 405.5,373.5C 403.833,373.5 402.167,373.5 400.5,373.5C 400.768,370.881 400.435,368.381 399.5,366C 394.845,365.501 390.179,365.334 385.5,365.5C 385.5,364.167 385.5,362.833 385.5,361.5C 390.179,361.666 394.845,361.499 399.5,361C 400.444,358.281 400.777,355.448 400.5,352.5C 394.833,352.5 389.167,352.5 383.5,352.5 Z"/></g>
    <g><path style="opacity:1" fill="#e7e8ea" d="M 426.5,352.5 C 421.36,351.512 416.026,351.179 410.5,351.5C 410.5,350.167 410.5,348.833 410.5,347.5C 416.176,347.334 421.843,347.501 427.5,348C 428.579,348.956 429.745,349.789 431,350.5C 432.432,358.054 432.932,365.721 432.5,373.5C 431.167,373.5 429.833,373.5 428.5,373.5C 428.666,366.825 428.5,360.158 428,353.5C 427.617,352.944 427.117,352.611 426.5,352.5 Z"/></g>
    <g><path style="opacity:1" fill="#8e939a" d="M 99.5,348.5 C 106.648,347.508 113.981,347.175 121.5,347.5C 121.5,349.167 121.5,350.833 121.5,352.5C 114.167,352.5 106.833,352.5 99.5,352.5C 98.1667,352.5 96.8333,352.5 95.5,352.5C 96.5676,351.566 97.901,351.232 99.5,351.5C 106.5,351.5 113.5,351.5 120.5,351.5C 120.5,350.5 120.5,349.5 120.5,348.5C 113.5,348.5 106.5,348.5 99.5,348.5 Z"/></g>
    <g><path style="opacity:1" fill="#8f949b" d="M 170.5,348.5 C 165.167,348.5 159.833,348.5 154.5,348.5C 154.5,349.5 154.5,350.5 154.5,351.5C 159.695,351.179 164.695,351.513 169.5,352.5C 164.5,352.5 159.5,352.5 154.5,352.5C 154.825,359.687 154.491,366.687 153.5,373.5C 153.5,366.5 153.5,359.5 153.5,352.5C 152.5,352.5 151.5,352.5 150.5,352.5C 150.5,359.5 150.5,366.5 150.5,373.5C 149.508,366.352 149.175,359.019 149.5,351.5C 150.833,351.5 152.167,351.5 153.5,351.5C 153.5,350.167 153.5,348.833 153.5,347.5C 159.358,347.178 165.025,347.511 170.5,348.5 Z"/></g>
    <g><path style="opacity:1" fill="#8f949b" d="M 263.5,348.5 C 258.167,348.5 252.833,348.5 247.5,348.5C 247.5,349.5 247.5,350.5 247.5,351.5C 252.695,351.179 257.695,351.513 262.5,352.5C 257.5,352.5 252.5,352.5 247.5,352.5C 247.5,354.167 247.5,355.833 247.5,357.5C 246.549,356.081 246.216,354.415 246.5,352.5C 245.5,352.5 244.5,352.5 243.5,352.5C 243.5,354.167 243.5,355.833 243.5,357.5C 242.539,355.735 242.205,353.735 242.5,351.5C 243.833,351.5 245.167,351.5 246.5,351.5C 246.5,350.167 246.5,348.833 246.5,347.5C 252.358,347.178 258.025,347.511 263.5,348.5 Z"/></g>
    <g><path style="opacity:1" fill="#8d939a" d="M 290.5,348.5 C 285.167,348.5 279.833,348.5 274.5,348.5C 274.5,349.5 274.5,350.5 274.5,351.5C 280.026,351.179 285.36,351.512 290.5,352.5C 285.167,352.5 279.833,352.5 274.5,352.5C 274.825,359.687 274.491,366.687 273.5,373.5C 273.5,366.5 273.5,359.5 273.5,352.5C 272.5,352.5 271.5,352.5 270.5,352.5C 270.5,359.5 270.5,366.5 270.5,373.5C 269.508,366.352 269.175,359.019 269.5,351.5C 270.833,351.5 272.167,351.5 273.5,351.5C 273.5,350.167 273.5,348.833 273.5,347.5C 279.358,347.178 285.025,347.511 290.5,348.5 Z"/></g>
    <g><path style="opacity:1" fill="#8e939a" d="M 301.5,348.5 C 308.648,347.508 315.981,347.175 323.5,347.5C 323.5,349.167 323.5,350.833 323.5,352.5C 316.167,352.5 308.833,352.5 301.5,352.5C 300.167,352.5 298.833,352.5 297.5,352.5C 298.568,351.566 299.901,351.232 301.5,351.5C 308.5,351.5 315.5,351.5 322.5,351.5C 322.5,350.5 322.5,349.5 322.5,348.5C 315.5,348.5 308.5,348.5 301.5,348.5 Z"/></g>
    <g><path style="opacity:1" fill="#90969d" d="M 329.5,348.5 C 334.975,347.511 340.642,347.178 346.5,347.5C 346.5,348.833 346.5,350.167 346.5,351.5C 347.833,351.5 349.167,351.5 350.5,351.5C 350.5,353.167 350.5,354.833 350.5,356.5C 348.833,356.5 347.167,356.5 345.5,356.5C 345.5,355.167 345.5,353.833 345.5,352.5C 340.5,352.5 335.5,352.5 330.5,352.5C 335.305,351.513 340.305,351.179 345.5,351.5C 345.5,350.5 345.5,349.5 345.5,348.5C 340.167,348.5 334.833,348.5 329.5,348.5 Z"/></g>
    <g><path style="opacity:1" fill="#8b9198" d="M 362.5,348.5 C 359.167,348.5 355.833,348.5 352.5,348.5C 352.5,349.5 352.5,350.5 352.5,351.5C 355.713,351.19 358.713,351.523 361.5,352.5C 358.167,352.5 354.833,352.5 351.5,352.5C 351.5,350.833 351.5,349.167 351.5,347.5C 355.371,347.185 359.038,347.518 362.5,348.5 Z"/></g>
    <g><path style="opacity:1" fill="#5f6872" d="M 72.5,348.5 C 72.5,349.833 72.5,351.167 72.5,352.5C 71.1667,352.5 69.8333,352.5 68.5,352.5C 68.5,359.5 68.5,366.5 68.5,373.5C 67.5084,366.352 67.175,359.019 67.5,351.5C 68.8333,351.5 70.1667,351.5 71.5,351.5C 71.2627,350.209 71.596,349.209 72.5,348.5 Z"/></g>
    <g><path style="opacity:1" fill="#f1f2f3" d="M 72.5,352.5 C 72.5,359.5 72.5,366.5 72.5,373.5C 71.1667,373.5 69.8333,373.5 68.5,373.5C 68.5,366.5 68.5,359.5 68.5,352.5C 69.8333,352.5 71.1667,352.5 72.5,352.5 Z"/></g>
    <g><path style="opacity:1" fill="#f8f8f9" d="M 95.5,352.5 C 96.8333,352.5 98.1667,352.5 99.5,352.5C 99.1934,358.093 99.5268,363.593 100.5,369C 107.492,369.5 114.492,369.666 121.5,369.5C 121.5,370.833 121.5,372.167 121.5,373.5C 113.389,373.935 105.389,373.435 97.5,372C 96.8742,371.25 96.3742,370.416 96,369.5C 95.5006,363.843 95.3339,358.176 95.5,352.5 Z"/></g>
    <g><path style="opacity:1" fill="#fefffe" d="M 153.5,373.5 C 152.5,373.5 151.5,373.5 150.5,373.5C 150.5,366.5 150.5,359.5 150.5,352.5C 151.5,352.5 152.5,352.5 153.5,352.5C 153.5,359.5 153.5,366.5 153.5,373.5 Z"/></g>
    <g><path style="opacity:1" fill="#f4f5f5" d="M 181.5,361.5 C 186.5,361.5 191.5,361.5 196.5,361.5C 196.5,362.833 196.5,364.167 196.5,365.5C 191.5,365.5 186.5,365.5 181.5,365.5C 181.5,368.167 181.5,370.833 181.5,373.5C 180.167,373.5 178.833,373.5 177.5,373.5C 177.5,366.5 177.5,359.5 177.5,352.5C 178.5,352.5 179.5,352.5 180.5,352.5C 180.19,355.713 180.523,358.713 181.5,361.5 Z"/></g>
    <g><path style="opacity:1" fill="#f3f3f4" d="M 247.5,357.5 C 252.985,358.327 258.652,358.827 264.5,359C 268.048,361.591 269.382,365.091 268.5,369.5C 267.167,369.5 265.833,369.5 264.5,369.5C 264.799,367.396 264.466,365.396 263.5,363.5C 257.885,362.711 252.218,362.211 246.5,362C 244.624,361.082 243.624,359.582 243.5,357.5C 243.5,355.833 243.5,354.167 243.5,352.5C 244.5,352.5 245.5,352.5 246.5,352.5C 246.216,354.415 246.549,356.081 247.5,357.5 Z"/></g>
    <g><path style="opacity:1" fill="#fefffe" d="M 273.5,373.5 C 272.5,373.5 271.5,373.5 270.5,373.5C 270.5,366.5 270.5,359.5 270.5,352.5C 271.5,352.5 272.5,352.5 273.5,352.5C 273.5,359.5 273.5,366.5 273.5,373.5 Z"/></g>
    <g><path style="opacity:1" fill="#f8f8f9" d="M 297.5,352.5 C 298.833,352.5 300.167,352.5 301.5,352.5C 301.193,358.093 301.527,363.593 302.5,369C 309.492,369.5 316.492,369.666 323.5,369.5C 323.5,370.833 323.5,372.167 323.5,373.5C 315.389,373.935 307.389,373.435 299.5,372C 298.874,371.25 298.374,370.416 298,369.5C 297.501,363.843 297.334,358.176 297.5,352.5 Z"/></g>
    <g><path style="opacity:1" fill="#fefffe" d="M 346.5,352.5 C 347.5,352.5 348.5,352.5 349.5,352.5C 349.5,353.5 349.5,354.5 349.5,355.5C 348.5,355.5 347.5,355.5 346.5,355.5C 346.5,354.5 346.5,353.5 346.5,352.5 Z"/></g>
    <g><path style="opacity:1" fill="#fcfdfd" d="M 379.5,352.5 C 380.833,352.5 382.167,352.5 383.5,352.5C 383.5,359.5 383.5,366.5 383.5,373.5C 382.167,373.5 380.833,373.5 379.5,373.5C 379.5,366.5 379.5,359.5 379.5,352.5 Z"/></g>
    <g><path style="opacity:1" fill="#bec1c5" d="M 410.5,351.5 C 416.026,351.179 421.36,351.512 426.5,352.5C 421.5,352.5 416.5,352.5 411.5,352.5C 411.167,352.5 410.833,352.5 410.5,352.5C 409.5,352.5 408.5,352.5 407.5,352.5C 407.5,359.5 407.5,366.5 407.5,373.5C 406.508,366.352 406.175,359.019 406.5,351.5C 407.833,351.5 409.167,351.5 410.5,351.5 Z"/></g>
    <g><path style="opacity:1" fill="#fafafb" d="M 410.5,352.5 C 410.5,355.5 410.5,358.5 410.5,361.5C 415.5,361.5 420.5,361.5 425.5,361.5C 425.5,362.833 425.5,364.167 425.5,365.5C 420.5,365.5 415.5,365.5 410.5,365.5C 410.5,368.167 410.5,370.833 410.5,373.5C 409.5,373.5 408.5,373.5 407.5,373.5C 407.5,366.5 407.5,359.5 407.5,352.5C 408.5,352.5 409.5,352.5 410.5,352.5 Z"/></g>
    <g><path style="opacity:1" fill="#828890" d="M 377.5,348.5 C 374.167,348.5 370.833,348.5 367.5,348.5C 367.5,349.5 367.5,350.5 367.5,351.5C 370.833,351.5 374.167,351.5 377.5,351.5C 374.375,352.479 371.042,352.813 367.5,352.5C 367.825,359.687 367.491,366.687 366.5,373.5C 366.799,365.747 366.466,358.08 365.5,350.5C 366.404,349.791 366.737,348.791 366.5,347.5C 370.371,347.185 374.038,347.518 377.5,348.5 Z"/></g>
    <g><path style="opacity:1" fill="#eceeef" d="M 101.5,358.5 C 107.167,358.5 112.833,358.5 118.5,358.5C 118.5,359.833 118.5,361.167 118.5,362.5C 112.833,362.5 107.167,362.5 101.5,362.5C 101.5,361.167 101.5,359.833 101.5,358.5 Z"/></g>
    <g><path style="opacity:1" fill="#eceeef" d="M 303.5,358.5 C 309.167,358.5 314.833,358.5 320.5,358.5C 320.5,359.833 320.5,361.167 320.5,362.5C 314.833,362.5 309.167,362.5 303.5,362.5C 303.5,361.167 303.5,359.833 303.5,358.5 Z"/></g>
    <g><path style="opacity:1" fill="#3f4855" d="M 410.5,352.5 C 410.833,352.5 411.167,352.5 411.5,352.5C 411.5,355.167 411.5,357.833 411.5,360.5C 416.363,360.181 421.03,360.514 425.5,361.5C 420.5,361.5 415.5,361.5 410.5,361.5C 410.5,358.5 410.5,355.5 410.5,352.5 Z"/></g>
    <g><path style="opacity:1" fill="#f9f9f9" d="M 247.5,367.5 C 247.611,368.117 247.944,368.617 248.5,369C 253.823,369.499 259.156,369.666 264.5,369.5C 264.5,370.833 264.5,372.167 264.5,373.5C 258.491,373.666 252.491,373.499 246.5,373C 244.859,371.871 243.859,370.371 243.5,368.5C 244.211,366.158 245.544,365.825 247.5,367.5 Z"/></g>
    <g><path style="opacity:1" fill="#8d929a" d="M 247.5,367.5 C 245.544,365.825 244.211,366.158 243.5,368.5C 242.596,367.791 242.263,366.791 242.5,365.5C 244.781,365.077 246.448,365.744 247.5,367.5 Z"/></g>
    <g><path style="opacity:1" fill="#f2f3f3" d="M 328.5,369.5 C 334.167,369.5 339.833,369.5 345.5,369.5C 345.5,368.5 345.5,367.5 345.5,366.5C 347.167,366.5 348.833,366.5 350.5,366.5C 350.5,368.833 350.5,371.167 350.5,373.5C 343.167,373.5 335.833,373.5 328.5,373.5C 328.5,372.167 328.5,370.833 328.5,369.5 Z"/></g>
</svg>
